<mxfile host="app.diagrams.net" agent="Mozilla/5.0 (Windows NT 10.0; Win64; x64) AppleWebKit/537.36 (KHTML, like Gecko) Chrome/131.0.0.0 Safari/537.36 OPR/116.0.0.0" version="26.1.0">
  <diagram name="Página-1" id="MDjsoxAEhNWSEtGpx5wv">
    <mxGraphModel dx="629" dy="430" grid="1" gridSize="10" guides="1" tooltips="1" connect="1" arrows="1" fold="1" page="1" pageScale="1" pageWidth="827" pageHeight="1169" math="0" shadow="0">
      <root>
        <mxCell id="0" />
        <mxCell id="1" parent="0" />
        <mxCell id="aJdKGYAzrcVxXCdfO1Xd-1" value="Socio" style="whiteSpace=wrap;html=1;align=center;" vertex="1" parent="1">
          <mxGeometry x="180" y="230" width="100" height="40" as="geometry" />
        </mxCell>
        <mxCell id="aJdKGYAzrcVxXCdfO1Xd-2" value="Peliculas" style="whiteSpace=wrap;html=1;align=center;" vertex="1" parent="1">
          <mxGeometry x="340" y="450" width="100" height="40" as="geometry" />
        </mxCell>
        <mxCell id="aJdKGYAzrcVxXCdfO1Xd-3" value="No_Socio" style="ellipse;whiteSpace=wrap;html=1;align=center;fontStyle=4;fillColor=#f8cecc;strokeColor=#b85450;" vertex="1" parent="1">
          <mxGeometry x="60" y="260" width="60" height="30" as="geometry" />
        </mxCell>
        <mxCell id="aJdKGYAzrcVxXCdfO1Xd-7" value="" style="endArrow=none;html=1;rounded=0;exitX=0;exitY=0.75;exitDx=0;exitDy=0;entryX=1;entryY=0.5;entryDx=0;entryDy=0;" edge="1" parent="1" source="aJdKGYAzrcVxXCdfO1Xd-1" target="aJdKGYAzrcVxXCdfO1Xd-3">
          <mxGeometry width="50" height="50" relative="1" as="geometry">
            <mxPoint x="160" y="230" as="sourcePoint" />
            <mxPoint x="130" y="260" as="targetPoint" />
          </mxGeometry>
        </mxCell>
        <mxCell id="aJdKGYAzrcVxXCdfO1Xd-8" value="RFC" style="ellipse;whiteSpace=wrap;html=1;align=center;" vertex="1" parent="1">
          <mxGeometry x="60" y="230" width="50" height="20" as="geometry" />
        </mxCell>
        <mxCell id="aJdKGYAzrcVxXCdfO1Xd-10" value="" style="endArrow=none;html=1;rounded=0;exitX=1;exitY=0.5;exitDx=0;exitDy=0;entryX=0;entryY=0.5;entryDx=0;entryDy=0;" edge="1" parent="1" source="aJdKGYAzrcVxXCdfO1Xd-8" target="aJdKGYAzrcVxXCdfO1Xd-1">
          <mxGeometry relative="1" as="geometry">
            <mxPoint x="270" y="200" as="sourcePoint" />
            <mxPoint x="430" y="200" as="targetPoint" />
          </mxGeometry>
        </mxCell>
        <mxCell id="aJdKGYAzrcVxXCdfO1Xd-11" value="Nombre" style="ellipse;whiteSpace=wrap;html=1;align=center;" vertex="1" parent="1">
          <mxGeometry x="100" y="190" width="50" height="20" as="geometry" />
        </mxCell>
        <mxCell id="aJdKGYAzrcVxXCdfO1Xd-15" value="" style="endArrow=none;html=1;rounded=0;exitX=0.5;exitY=1;exitDx=0;exitDy=0;entryX=0;entryY=0;entryDx=0;entryDy=0;" edge="1" parent="1" source="aJdKGYAzrcVxXCdfO1Xd-11" target="aJdKGYAzrcVxXCdfO1Xd-1">
          <mxGeometry relative="1" as="geometry">
            <mxPoint x="260" y="200" as="sourcePoint" />
            <mxPoint x="420" y="200" as="targetPoint" />
          </mxGeometry>
        </mxCell>
        <mxCell id="aJdKGYAzrcVxXCdfO1Xd-16" value="Ap_Paterno" style="ellipse;whiteSpace=wrap;html=1;align=center;" vertex="1" parent="1">
          <mxGeometry x="10" y="185" width="70" height="30" as="geometry" />
        </mxCell>
        <mxCell id="aJdKGYAzrcVxXCdfO1Xd-17" value="" style="endArrow=none;html=1;rounded=0;entryX=0;entryY=0.5;entryDx=0;entryDy=0;exitX=1;exitY=0.5;exitDx=0;exitDy=0;" edge="1" parent="1" source="aJdKGYAzrcVxXCdfO1Xd-16" target="aJdKGYAzrcVxXCdfO1Xd-11">
          <mxGeometry relative="1" as="geometry">
            <mxPoint x="170" y="130" as="sourcePoint" />
            <mxPoint x="330" y="130" as="targetPoint" />
          </mxGeometry>
        </mxCell>
        <mxCell id="aJdKGYAzrcVxXCdfO1Xd-18" value="Ap_Materno" style="ellipse;whiteSpace=wrap;html=1;align=center;" vertex="1" parent="1">
          <mxGeometry x="20" y="150" width="70" height="30" as="geometry" />
        </mxCell>
        <mxCell id="aJdKGYAzrcVxXCdfO1Xd-19" value="" style="endArrow=none;html=1;rounded=0;exitX=1;exitY=1;exitDx=0;exitDy=0;entryX=0;entryY=0;entryDx=0;entryDy=0;" edge="1" parent="1" source="aJdKGYAzrcVxXCdfO1Xd-18" target="aJdKGYAzrcVxXCdfO1Xd-11">
          <mxGeometry relative="1" as="geometry">
            <mxPoint x="250" y="120" as="sourcePoint" />
            <mxPoint x="410" y="120" as="targetPoint" />
          </mxGeometry>
        </mxCell>
        <mxCell id="aJdKGYAzrcVxXCdfO1Xd-20" value="Nombre_pila" style="ellipse;whiteSpace=wrap;html=1;align=center;" vertex="1" parent="1">
          <mxGeometry x="60" y="120" width="76" height="30" as="geometry" />
        </mxCell>
        <mxCell id="aJdKGYAzrcVxXCdfO1Xd-21" value="" style="endArrow=none;html=1;rounded=0;exitX=0.5;exitY=0;exitDx=0;exitDy=0;entryX=0.5;entryY=1;entryDx=0;entryDy=0;" edge="1" parent="1" source="aJdKGYAzrcVxXCdfO1Xd-11" target="aJdKGYAzrcVxXCdfO1Xd-20">
          <mxGeometry relative="1" as="geometry">
            <mxPoint x="250" y="140" as="sourcePoint" />
            <mxPoint x="410" y="140" as="targetPoint" />
          </mxGeometry>
        </mxCell>
        <mxCell id="aJdKGYAzrcVxXCdfO1Xd-26" value="Teléfonos" style="ellipse;shape=doubleEllipse;margin=3;whiteSpace=wrap;html=1;align=center;" vertex="1" parent="1">
          <mxGeometry x="136" y="155" width="60" height="30" as="geometry" />
        </mxCell>
        <mxCell id="aJdKGYAzrcVxXCdfO1Xd-27" value="" style="endArrow=none;html=1;rounded=0;exitX=0.5;exitY=1;exitDx=0;exitDy=0;entryX=0.173;entryY=-0.007;entryDx=0;entryDy=0;entryPerimeter=0;" edge="1" parent="1" source="aJdKGYAzrcVxXCdfO1Xd-26" target="aJdKGYAzrcVxXCdfO1Xd-1">
          <mxGeometry relative="1" as="geometry">
            <mxPoint x="200" y="200" as="sourcePoint" />
            <mxPoint x="360" y="200" as="targetPoint" />
          </mxGeometry>
        </mxCell>
        <mxCell id="aJdKGYAzrcVxXCdfO1Xd-28" value="Emails" style="ellipse;shape=doubleEllipse;margin=3;whiteSpace=wrap;html=1;align=center;" vertex="1" parent="1">
          <mxGeometry x="196" y="170" width="50" height="25" as="geometry" />
        </mxCell>
        <mxCell id="aJdKGYAzrcVxXCdfO1Xd-29" value="" style="endArrow=none;html=1;rounded=0;exitX=0.5;exitY=1;exitDx=0;exitDy=0;entryX=0.5;entryY=0;entryDx=0;entryDy=0;" edge="1" parent="1" source="aJdKGYAzrcVxXCdfO1Xd-28" target="aJdKGYAzrcVxXCdfO1Xd-1">
          <mxGeometry relative="1" as="geometry">
            <mxPoint x="270" y="180" as="sourcePoint" />
            <mxPoint x="430" y="180" as="targetPoint" />
          </mxGeometry>
        </mxCell>
        <mxCell id="aJdKGYAzrcVxXCdfO1Xd-30" value="Dirección" style="ellipse;whiteSpace=wrap;html=1;align=center;" vertex="1" parent="1">
          <mxGeometry x="250" y="160" width="60" height="20" as="geometry" />
        </mxCell>
        <mxCell id="aJdKGYAzrcVxXCdfO1Xd-31" value="" style="endArrow=none;html=1;rounded=0;exitX=0.5;exitY=1;exitDx=0;exitDy=0;entryX=0.733;entryY=-0.079;entryDx=0;entryDy=0;entryPerimeter=0;" edge="1" parent="1" source="aJdKGYAzrcVxXCdfO1Xd-30" target="aJdKGYAzrcVxXCdfO1Xd-1">
          <mxGeometry relative="1" as="geometry">
            <mxPoint x="300" y="210" as="sourcePoint" />
            <mxPoint x="460" y="210" as="targetPoint" />
          </mxGeometry>
        </mxCell>
        <mxCell id="aJdKGYAzrcVxXCdfO1Xd-32" value="Calle" style="ellipse;whiteSpace=wrap;html=1;align=center;" vertex="1" parent="1">
          <mxGeometry x="190" y="120" width="44" height="20" as="geometry" />
        </mxCell>
        <mxCell id="aJdKGYAzrcVxXCdfO1Xd-33" value="&lt;font style=&quot;font-size: 10px;&quot;&gt;No_exterior&lt;/font&gt;" style="ellipse;whiteSpace=wrap;html=1;align=center;" vertex="1" parent="1">
          <mxGeometry x="196" y="90" width="60" height="20" as="geometry" />
        </mxCell>
        <mxCell id="aJdKGYAzrcVxXCdfO1Xd-34" value="&lt;font style=&quot;font-size: 10px;&quot;&gt;No_interior&lt;/font&gt;" style="ellipse;whiteSpace=wrap;html=1;align=center;" vertex="1" parent="1">
          <mxGeometry x="220" y="60" width="60" height="20" as="geometry" />
        </mxCell>
        <mxCell id="aJdKGYAzrcVxXCdfO1Xd-35" value="CP" style="ellipse;whiteSpace=wrap;html=1;align=center;" vertex="1" parent="1">
          <mxGeometry x="294" y="60" width="34" height="20" as="geometry" />
        </mxCell>
        <mxCell id="aJdKGYAzrcVxXCdfO1Xd-36" value="Colonia" style="ellipse;whiteSpace=wrap;html=1;align=center;" vertex="1" parent="1">
          <mxGeometry x="314" y="80" width="46" height="20" as="geometry" />
        </mxCell>
        <mxCell id="aJdKGYAzrcVxXCdfO1Xd-37" value="Ciudad" style="ellipse;whiteSpace=wrap;html=1;align=center;" vertex="1" parent="1">
          <mxGeometry x="328" y="110" width="52" height="20" as="geometry" />
        </mxCell>
        <mxCell id="aJdKGYAzrcVxXCdfO1Xd-38" value="Municipio" style="ellipse;whiteSpace=wrap;html=1;align=center;" vertex="1" parent="1">
          <mxGeometry x="324" y="140" width="60" height="20" as="geometry" />
        </mxCell>
        <mxCell id="aJdKGYAzrcVxXCdfO1Xd-39" value="" style="endArrow=none;html=1;rounded=0;exitX=0.5;exitY=1;exitDx=0;exitDy=0;" edge="1" parent="1" source="aJdKGYAzrcVxXCdfO1Xd-32" target="aJdKGYAzrcVxXCdfO1Xd-30">
          <mxGeometry relative="1" as="geometry">
            <mxPoint x="240" y="140" as="sourcePoint" />
            <mxPoint x="400" y="140" as="targetPoint" />
          </mxGeometry>
        </mxCell>
        <mxCell id="aJdKGYAzrcVxXCdfO1Xd-40" value="" style="endArrow=none;html=1;rounded=0;exitX=0.65;exitY=0.957;exitDx=0;exitDy=0;exitPerimeter=0;entryX=0.312;entryY=0.057;entryDx=0;entryDy=0;entryPerimeter=0;" edge="1" parent="1" source="aJdKGYAzrcVxXCdfO1Xd-33" target="aJdKGYAzrcVxXCdfO1Xd-30">
          <mxGeometry relative="1" as="geometry">
            <mxPoint x="230" y="120" as="sourcePoint" />
            <mxPoint x="390" y="120" as="targetPoint" />
          </mxGeometry>
        </mxCell>
        <mxCell id="aJdKGYAzrcVxXCdfO1Xd-41" value="" style="endArrow=none;html=1;rounded=0;exitX=0.628;exitY=1;exitDx=0;exitDy=0;exitPerimeter=0;entryX=0.397;entryY=0.038;entryDx=0;entryDy=0;entryPerimeter=0;" edge="1" parent="1" source="aJdKGYAzrcVxXCdfO1Xd-34" target="aJdKGYAzrcVxXCdfO1Xd-30">
          <mxGeometry relative="1" as="geometry">
            <mxPoint x="290" y="110" as="sourcePoint" />
            <mxPoint x="450" y="110" as="targetPoint" />
          </mxGeometry>
        </mxCell>
        <mxCell id="aJdKGYAzrcVxXCdfO1Xd-43" value="" style="endArrow=none;html=1;rounded=0;exitX=0.165;exitY=0.933;exitDx=0;exitDy=0;exitPerimeter=0;entryX=0.538;entryY=-0.019;entryDx=0;entryDy=0;entryPerimeter=0;" edge="1" parent="1" source="aJdKGYAzrcVxXCdfO1Xd-35" target="aJdKGYAzrcVxXCdfO1Xd-30">
          <mxGeometry relative="1" as="geometry">
            <mxPoint x="290" y="100.19" as="sourcePoint" />
            <mxPoint x="410" y="100" as="targetPoint" />
          </mxGeometry>
        </mxCell>
        <mxCell id="aJdKGYAzrcVxXCdfO1Xd-44" value="" style="endArrow=none;html=1;rounded=0;entryX=0;entryY=1;entryDx=0;entryDy=0;exitX=0.673;exitY=0.019;exitDx=0;exitDy=0;exitPerimeter=0;" edge="1" parent="1" source="aJdKGYAzrcVxXCdfO1Xd-30" target="aJdKGYAzrcVxXCdfO1Xd-36">
          <mxGeometry relative="1" as="geometry">
            <mxPoint x="282" y="100" as="sourcePoint" />
            <mxPoint x="392" y="100" as="targetPoint" />
          </mxGeometry>
        </mxCell>
        <mxCell id="aJdKGYAzrcVxXCdfO1Xd-45" value="" style="endArrow=none;html=1;rounded=0;exitX=0.795;exitY=0.096;exitDx=0;exitDy=0;exitPerimeter=0;entryX=0;entryY=0.5;entryDx=0;entryDy=0;" edge="1" parent="1" source="aJdKGYAzrcVxXCdfO1Xd-30" target="aJdKGYAzrcVxXCdfO1Xd-37">
          <mxGeometry relative="1" as="geometry">
            <mxPoint x="300" y="160" as="sourcePoint" />
            <mxPoint x="390" y="160" as="targetPoint" />
          </mxGeometry>
        </mxCell>
        <mxCell id="aJdKGYAzrcVxXCdfO1Xd-46" value="" style="endArrow=none;html=1;rounded=0;exitX=0.99;exitY=0.356;exitDx=0;exitDy=0;exitPerimeter=0;entryX=0.001;entryY=0.567;entryDx=0;entryDy=0;entryPerimeter=0;" edge="1" parent="1" source="aJdKGYAzrcVxXCdfO1Xd-30" target="aJdKGYAzrcVxXCdfO1Xd-38">
          <mxGeometry relative="1" as="geometry">
            <mxPoint x="314" y="164.9" as="sourcePoint" />
            <mxPoint x="424" y="164.9" as="targetPoint" />
          </mxGeometry>
        </mxCell>
        <mxCell id="aJdKGYAzrcVxXCdfO1Xd-48" value="Clave" style="ellipse;whiteSpace=wrap;html=1;align=center;fontStyle=4;fillColor=#f8cecc;strokeColor=#b85450;" vertex="1" parent="1">
          <mxGeometry x="501" y="440" width="40" height="30" as="geometry" />
        </mxCell>
        <mxCell id="aJdKGYAzrcVxXCdfO1Xd-49" value="Título" style="ellipse;whiteSpace=wrap;html=1;align=center;" vertex="1" parent="1">
          <mxGeometry x="505" y="490" width="40" height="30" as="geometry" />
        </mxCell>
        <mxCell id="aJdKGYAzrcVxXCdfO1Xd-50" value="Clasificación" style="ellipse;whiteSpace=wrap;html=1;align=center;" vertex="1" parent="1">
          <mxGeometry x="446" y="530" width="70" height="40" as="geometry" />
        </mxCell>
        <mxCell id="aJdKGYAzrcVxXCdfO1Xd-51" value="Género" style="ellipse;whiteSpace=wrap;html=1;align=center;" vertex="1" parent="1">
          <mxGeometry x="376" y="540" width="50" height="30" as="geometry" />
        </mxCell>
        <mxCell id="aJdKGYAzrcVxXCdfO1Xd-53" value="Año" style="ellipse;whiteSpace=wrap;html=1;align=center;" vertex="1" parent="1">
          <mxGeometry x="326" y="540" width="40" height="30" as="geometry" />
        </mxCell>
        <mxCell id="aJdKGYAzrcVxXCdfO1Xd-54" value="Formato" style="ellipse;whiteSpace=wrap;html=1;align=center;" vertex="1" parent="1">
          <mxGeometry x="250" y="530" width="56" height="30" as="geometry" />
        </mxCell>
        <mxCell id="aJdKGYAzrcVxXCdfO1Xd-55" value="" style="endArrow=none;html=1;rounded=0;entryX=0;entryY=1;entryDx=0;entryDy=0;exitX=0.755;exitY=0.076;exitDx=0;exitDy=0;exitPerimeter=0;" edge="1" parent="1" source="aJdKGYAzrcVxXCdfO1Xd-54" target="aJdKGYAzrcVxXCdfO1Xd-2">
          <mxGeometry relative="1" as="geometry">
            <mxPoint x="200" y="480" as="sourcePoint" />
            <mxPoint x="360" y="480" as="targetPoint" />
          </mxGeometry>
        </mxCell>
        <mxCell id="aJdKGYAzrcVxXCdfO1Xd-56" value="" style="endArrow=none;html=1;rounded=0;entryX=0.25;entryY=1;entryDx=0;entryDy=0;exitX=0.5;exitY=0;exitDx=0;exitDy=0;" edge="1" parent="1" target="aJdKGYAzrcVxXCdfO1Xd-2">
          <mxGeometry relative="1" as="geometry">
            <mxPoint x="350" y="540" as="sourcePoint" />
            <mxPoint x="400" y="500" as="targetPoint" />
          </mxGeometry>
        </mxCell>
        <mxCell id="aJdKGYAzrcVxXCdfO1Xd-57" value="" style="endArrow=none;html=1;rounded=0;exitX=0.5;exitY=1;exitDx=0;exitDy=0;entryX=0.5;entryY=0;entryDx=0;entryDy=0;" edge="1" parent="1" source="aJdKGYAzrcVxXCdfO1Xd-2">
          <mxGeometry relative="1" as="geometry">
            <mxPoint x="350" y="520" as="sourcePoint" />
            <mxPoint x="405" y="540" as="targetPoint" />
          </mxGeometry>
        </mxCell>
        <mxCell id="aJdKGYAzrcVxXCdfO1Xd-60" value="" style="endArrow=none;html=1;rounded=0;entryX=0.338;entryY=-0.013;entryDx=0;entryDy=0;entryPerimeter=0;exitX=0.75;exitY=1;exitDx=0;exitDy=0;" edge="1" parent="1" source="aJdKGYAzrcVxXCdfO1Xd-2">
          <mxGeometry relative="1" as="geometry">
            <mxPoint x="410" y="500" as="sourcePoint" />
            <mxPoint x="473.6600000000001" y="529.48" as="targetPoint" />
          </mxGeometry>
        </mxCell>
        <mxCell id="aJdKGYAzrcVxXCdfO1Xd-61" value="" style="endArrow=none;html=1;rounded=0;exitX=1;exitY=0.75;exitDx=0;exitDy=0;entryX=-0.019;entryY=0.446;entryDx=0;entryDy=0;entryPerimeter=0;" edge="1" parent="1" source="aJdKGYAzrcVxXCdfO1Xd-2" target="aJdKGYAzrcVxXCdfO1Xd-49">
          <mxGeometry relative="1" as="geometry">
            <mxPoint x="360" y="520" as="sourcePoint" />
            <mxPoint x="520" y="520" as="targetPoint" />
          </mxGeometry>
        </mxCell>
        <mxCell id="aJdKGYAzrcVxXCdfO1Xd-62" value="" style="endArrow=none;html=1;rounded=0;exitX=1;exitY=0.25;exitDx=0;exitDy=0;entryX=0;entryY=0.5;entryDx=0;entryDy=0;" edge="1" parent="1" source="aJdKGYAzrcVxXCdfO1Xd-2">
          <mxGeometry relative="1" as="geometry">
            <mxPoint x="360" y="520" as="sourcePoint" />
            <mxPoint x="505" y="455" as="targetPoint" />
          </mxGeometry>
        </mxCell>
        <mxCell id="aJdKGYAzrcVxXCdfO1Xd-64" value="1:N" style="shape=rhombus;perimeter=rhombusPerimeter;whiteSpace=wrap;html=1;align=center;" vertex="1" parent="1">
          <mxGeometry x="204" y="320" width="52" height="50" as="geometry" />
        </mxCell>
        <mxCell id="aJdKGYAzrcVxXCdfO1Xd-65" value="" style="endArrow=none;html=1;rounded=0;exitX=0.5;exitY=1;exitDx=0;exitDy=0;" edge="1" parent="1" source="aJdKGYAzrcVxXCdfO1Xd-1">
          <mxGeometry relative="1" as="geometry">
            <mxPoint x="240" y="280" as="sourcePoint" />
            <mxPoint x="230" y="320" as="targetPoint" />
          </mxGeometry>
        </mxCell>
        <mxCell id="aJdKGYAzrcVxXCdfO1Xd-66" value="" style="endArrow=none;html=1;rounded=0;" edge="1" parent="1">
          <mxGeometry relative="1" as="geometry">
            <mxPoint x="230" y="410" as="sourcePoint" />
            <mxPoint x="390" y="410" as="targetPoint" />
          </mxGeometry>
        </mxCell>
        <mxCell id="aJdKGYAzrcVxXCdfO1Xd-67" value="" style="endArrow=none;html=1;rounded=0;" edge="1" parent="1">
          <mxGeometry relative="1" as="geometry">
            <mxPoint x="230" y="370" as="sourcePoint" />
            <mxPoint x="230" y="410" as="targetPoint" />
          </mxGeometry>
        </mxCell>
        <mxCell id="aJdKGYAzrcVxXCdfO1Xd-68" value="" style="endArrow=none;html=1;rounded=0;entryX=0.5;entryY=0;entryDx=0;entryDy=0;" edge="1" parent="1" target="aJdKGYAzrcVxXCdfO1Xd-2">
          <mxGeometry relative="1" as="geometry">
            <mxPoint x="390" y="410" as="sourcePoint" />
            <mxPoint x="480" y="370" as="targetPoint" />
          </mxGeometry>
        </mxCell>
        <mxCell id="aJdKGYAzrcVxXCdfO1Xd-71" value="1" style="text;html=1;align=center;verticalAlign=middle;whiteSpace=wrap;rounded=0;" vertex="1" parent="1">
          <mxGeometry x="211" y="280" width="20" height="10" as="geometry" />
        </mxCell>
        <mxCell id="aJdKGYAzrcVxXCdfO1Xd-72" value="N" style="text;html=1;align=center;verticalAlign=middle;whiteSpace=wrap;rounded=0;" vertex="1" parent="1">
          <mxGeometry x="366" y="430" width="20" height="10" as="geometry" />
        </mxCell>
        <mxCell id="aJdKGYAzrcVxXCdfO1Xd-73" value="1" style="text;html=1;align=center;verticalAlign=middle;whiteSpace=wrap;rounded=0;" vertex="1" parent="1">
          <mxGeometry x="394" y="430" width="20" height="10" as="geometry" />
        </mxCell>
        <mxCell id="aJdKGYAzrcVxXCdfO1Xd-74" value="1" style="text;html=1;align=center;verticalAlign=middle;whiteSpace=wrap;rounded=0;" vertex="1" parent="1">
          <mxGeometry x="234" y="280" width="20" height="10" as="geometry" />
        </mxCell>
        <mxCell id="aJdKGYAzrcVxXCdfO1Xd-75" value="No_Socio1" style="ellipse;whiteSpace=wrap;html=1;align=center;fontStyle=4;fillColor=#d5e8d4;strokeColor=#82b366;" vertex="1" parent="1">
          <mxGeometry x="90" y="320" width="64" height="30" as="geometry" />
        </mxCell>
        <mxCell id="aJdKGYAzrcVxXCdfO1Xd-76" value="Clave1" style="ellipse;whiteSpace=wrap;html=1;align=center;fontStyle=4;fillColor=#d5e8d4;strokeColor=#82b366;" vertex="1" parent="1">
          <mxGeometry x="83" y="360" width="53" height="30" as="geometry" />
        </mxCell>
        <mxCell id="aJdKGYAzrcVxXCdfO1Xd-77" value="F_renta" style="ellipse;whiteSpace=wrap;html=1;align=center;" vertex="1" parent="1">
          <mxGeometry x="104" y="400" width="50" height="20" as="geometry" />
        </mxCell>
        <mxCell id="aJdKGYAzrcVxXCdfO1Xd-78" value="F_devol" style="ellipse;whiteSpace=wrap;html=1;align=center;" vertex="1" parent="1">
          <mxGeometry x="140" y="420" width="50" height="20" as="geometry" />
        </mxCell>
        <mxCell id="aJdKGYAzrcVxXCdfO1Xd-79" value="" style="endArrow=none;html=1;rounded=0;exitX=1;exitY=0.5;exitDx=0;exitDy=0;entryX=0;entryY=0;entryDx=0;entryDy=0;" edge="1" parent="1" source="aJdKGYAzrcVxXCdfO1Xd-75" target="aJdKGYAzrcVxXCdfO1Xd-64">
          <mxGeometry relative="1" as="geometry">
            <mxPoint x="160" y="340" as="sourcePoint" />
            <mxPoint x="320" y="340" as="targetPoint" />
          </mxGeometry>
        </mxCell>
        <mxCell id="aJdKGYAzrcVxXCdfO1Xd-80" value="" style="endArrow=none;html=1;rounded=0;exitX=1;exitY=0.5;exitDx=0;exitDy=0;entryX=0;entryY=0.5;entryDx=0;entryDy=0;" edge="1" parent="1" source="aJdKGYAzrcVxXCdfO1Xd-76" target="aJdKGYAzrcVxXCdfO1Xd-64">
          <mxGeometry relative="1" as="geometry">
            <mxPoint x="140" y="370" as="sourcePoint" />
            <mxPoint x="300" y="370" as="targetPoint" />
          </mxGeometry>
        </mxCell>
        <mxCell id="aJdKGYAzrcVxXCdfO1Xd-81" value="" style="endArrow=none;html=1;rounded=0;exitX=0.772;exitY=0.07;exitDx=0;exitDy=0;exitPerimeter=0;entryX=0.158;entryY=0.636;entryDx=0;entryDy=0;entryPerimeter=0;" edge="1" parent="1" source="aJdKGYAzrcVxXCdfO1Xd-77" target="aJdKGYAzrcVxXCdfO1Xd-64">
          <mxGeometry relative="1" as="geometry">
            <mxPoint x="160" y="400" as="sourcePoint" />
            <mxPoint x="320" y="400" as="targetPoint" />
          </mxGeometry>
        </mxCell>
        <mxCell id="aJdKGYAzrcVxXCdfO1Xd-82" value="" style="endArrow=none;html=1;rounded=0;exitX=0.5;exitY=0;exitDx=0;exitDy=0;entryX=0;entryY=1;entryDx=0;entryDy=0;" edge="1" parent="1" source="aJdKGYAzrcVxXCdfO1Xd-78" target="aJdKGYAzrcVxXCdfO1Xd-64">
          <mxGeometry relative="1" as="geometry">
            <mxPoint x="190" y="400" as="sourcePoint" />
            <mxPoint x="350" y="400" as="targetPoint" />
          </mxGeometry>
        </mxCell>
      </root>
    </mxGraphModel>
  </diagram>
</mxfile>
